<svg xmlns="http://www.w3.org/2000/svg" xmlns:xlink="http://www.w3.org/1999/xlink" width="300" zoomAndPan="magnify" viewBox="0 0 224.87999 74.999997" height="100" preserveAspectRatio="xMidYMid meet" version="1.0"><defs><g/><clipPath id="631dcf37d6"><path d="M 14.804688 0.457031 L 43.464844 0.457031 L 43.464844 25.5 L 14.804688 25.5 Z M 14.804688 0.457031 " clip-rule="nonzero"/></clipPath><clipPath id="71a3efbc3e"><path d="M 29.113281 0.457031 L 43.425781 25.5 L 14.804688 25.5 Z M 29.113281 0.457031 " clip-rule="nonzero"/></clipPath><clipPath id="d57c68cf28"><path d="M 0.804688 0.457031 L 29.464844 0.457031 L 29.464844 25.5 L 0.804688 25.5 Z M 0.804688 0.457031 " clip-rule="nonzero"/></clipPath><clipPath id="1167548bd3"><path d="M 15.113281 0.457031 L 29.425781 25.5 L 0.804688 25.5 Z M 15.113281 0.457031 " clip-rule="nonzero"/></clipPath><clipPath id="7050187931"><rect x="0" width="30" y="0" height="26"/></clipPath><clipPath id="f802ec7c4a"><path d="M 0.496094 25.5 L 29.15625 25.5 L 29.15625 50.542969 L 0.496094 50.542969 Z M 0.496094 25.5 " clip-rule="nonzero"/></clipPath><clipPath id="b9f569a997"><path d="M 14.804688 25.5 L 29.113281 50.542969 L 0.496094 50.542969 Z M 14.804688 25.5 " clip-rule="nonzero"/></clipPath><clipPath id="4889ada2d7"><path d="M 0.496094 0.5 L 29.15625 0.5 L 29.15625 25.542969 L 0.496094 25.542969 Z M 0.496094 0.5 " clip-rule="nonzero"/></clipPath><clipPath id="b5f85c1d48"><path d="M 14.804688 0.5 L 29.113281 25.542969 L 0.496094 25.542969 Z M 14.804688 0.5 " clip-rule="nonzero"/></clipPath><clipPath id="2cb8e9b08b"><rect x="0" width="30" y="0" height="26"/></clipPath><clipPath id="64084e2486"><path d="M 29.113281 25.5 L 57.777344 25.5 L 57.777344 50.542969 L 29.113281 50.542969 Z M 29.113281 25.5 " clip-rule="nonzero"/></clipPath><clipPath id="3492e39961"><path d="M 43.425781 25.5 L 57.734375 50.542969 L 29.113281 50.542969 Z M 43.425781 25.5 " clip-rule="nonzero"/></clipPath><clipPath id="de866da57b"><path d="M 0.113281 0.5 L 28.765625 0.5 L 28.765625 25.542969 L 0.113281 25.542969 Z M 0.113281 0.5 " clip-rule="nonzero"/></clipPath><clipPath id="8b15fc10d5"><path d="M 14.425781 0.5 L 28.734375 25.542969 L 0.113281 25.542969 Z M 14.425781 0.5 " clip-rule="nonzero"/></clipPath><clipPath id="72b4c9a92d"><rect x="0" width="29" y="0" height="26"/></clipPath><clipPath id="65b8b40775"><path d="M 14.761719 25.5 L 43.425781 25.5 L 43.425781 50.542969 L 14.761719 50.542969 Z M 14.761719 25.5 " clip-rule="nonzero"/></clipPath><clipPath id="f8de06d05f"><path d="M 29.113281 50.542969 L 14.804688 25.5 L 43.425781 25.5 Z M 29.113281 50.542969 " clip-rule="nonzero"/></clipPath><clipPath id="4b30fdb8cd"><path d="M 0.761719 0.5 L 29.425781 0.5 L 29.425781 25.542969 L 0.761719 25.542969 Z M 0.761719 0.5 " clip-rule="nonzero"/></clipPath><clipPath id="cb7d14f217"><path d="M 15.113281 25.542969 L 0.804688 0.5 L 29.425781 0.5 Z M 15.113281 25.542969 " clip-rule="nonzero"/></clipPath><clipPath id="05c891fed9"><rect x="0" width="30" y="0" height="26"/></clipPath><clipPath id="8486155bd8"><rect x="0" width="59" y="0" height="51"/></clipPath><clipPath id="21a52ae308"><rect x="0" width="155" y="0" height="57"/></clipPath></defs><g transform="matrix(1, 0, 0, 1, 7, 12)"><g clip-path="url(#8486155bd8)"><g clip-path="url(#631dcf37d6)"><g clip-path="url(#71a3efbc3e)"><g transform="matrix(1, 0, 0, 1, 14, 0.000000000000001776)"><g clip-path="url(#7050187931)"><g clip-path="url(#d57c68cf28)"><g clip-path="url(#1167548bd3)"><path fill="#00ffff" d="M 0.804688 0.457031 L 29.464844 0.457031 L 29.464844 25.5 L 0.804688 25.5 Z M 0.804688 0.457031 " fill-opacity="1" fill-rule="nonzero"/></g></g></g></g></g></g><g clip-path="url(#f802ec7c4a)"><g clip-path="url(#b9f569a997)"><g transform="matrix(1, 0, 0, 1, 0.000000000000000888, 25)"><g clip-path="url(#2cb8e9b08b)"><g clip-path="url(#4889ada2d7)"><g clip-path="url(#b5f85c1d48)"><path fill="#ff00ff" d="M 0.496094 0.5 L 29.15625 0.5 L 29.15625 25.542969 L 0.496094 25.542969 Z M 0.496094 0.5 " fill-opacity="1" fill-rule="nonzero"/></g></g></g></g></g></g><g clip-path="url(#64084e2486)"><g clip-path="url(#3492e39961)"><g transform="matrix(1, 0, 0, 1, 29, 25)"><g clip-path="url(#72b4c9a92d)"><g clip-path="url(#de866da57b)"><g clip-path="url(#8b15fc10d5)"><path fill="#ffff00" d="M 0.113281 0.5 L 28.777344 0.5 L 28.777344 25.542969 L 0.113281 25.542969 Z M 0.113281 0.5 " fill-opacity="1" fill-rule="nonzero"/></g></g></g></g></g></g><g clip-path="url(#65b8b40775)"><g clip-path="url(#f8de06d05f)"><g transform="matrix(1, 0, 0, 1, 14, 25)"><g clip-path="url(#05c891fed9)"><g clip-path="url(#4b30fdb8cd)"><g clip-path="url(#cb7d14f217)"><path fill="#000000" d="M 29.425781 25.542969 L 0.761719 25.542969 L 0.761719 0.5 L 29.425781 0.5 Z M 29.425781 25.542969 " fill-opacity="1" fill-rule="nonzero"/></g></g></g></g></g></g></g></g><g transform="matrix(1, 0, 0, 1, 63, 9)"><g clip-path="url(#21a52ae308)"><g fill="#000000" fill-opacity="1"><g transform="translate(0.422282, 43.520301)"><g><path d="M 24.25 -3.421875 C 21.613281 -1.222656 18.597656 -0.125 15.203125 -0.125 C 11.359375 -0.125 8.070312 -1.488281 5.34375 -4.21875 C 2.613281 -6.945312 1.25 -10.226562 1.25 -14.0625 C 1.25 -17.9375 2.613281 -21.238281 5.34375 -23.96875 C 8.070312 -26.695312 11.359375 -28.0625 15.203125 -28.0625 C 18.617188 -28.0625 21.632812 -26.945312 24.25 -24.71875 L 20.078125 -20.578125 C 18.660156 -21.671875 17.035156 -22.21875 15.203125 -22.21875 C 12.972656 -22.21875 11.066406 -21.421875 9.484375 -19.828125 C 7.890625 -18.242188 7.09375 -16.320312 7.09375 -14.0625 C 7.09375 -11.84375 7.890625 -9.9375 9.484375 -8.34375 C 11.066406 -6.757812 12.972656 -5.96875 15.203125 -5.96875 C 17.035156 -5.96875 18.660156 -6.507812 20.078125 -7.59375 Z M 24.25 -3.421875 "/></g></g></g><g fill="#000000" fill-opacity="1"><g transform="translate(24.765042, 43.520301)"><g><path d="M 12.3125 0.046875 C 10.476562 0.046875 8.863281 -0.21875 7.46875 -0.75 C 6.351562 -1.195312 5.210938 -1.9375 4.046875 -2.96875 C 2.710938 -4.1875 1.863281 -5.703125 1.5 -7.515625 C 1.363281 -8.097656 1.296875 -8.679688 1.296875 -9.265625 C 1.265625 -9.460938 1.265625 -9.660156 1.296875 -9.859375 L 1.296875 -10.140625 L 7.015625 -10.0625 L 7.015625 -10.109375 C 7.015625 -9.078125 7.238281 -8.226562 7.6875 -7.5625 C 8.519531 -6.300781 10.0625 -5.671875 12.3125 -5.671875 C 15.9375 -5.671875 17.75 -6.519531 17.75 -8.21875 C 17.75 -9.863281 15.882812 -10.894531 12.15625 -11.3125 C 10.007812 -11.5625 8.171875 -12.007812 6.640625 -12.65625 C 5.222656 -13.238281 4.066406 -14.015625 3.171875 -14.984375 C 1.921875 -16.378906 1.296875 -17.992188 1.296875 -19.828125 C 1.296875 -20.972656 1.503906 -22.046875 1.921875 -23.046875 C 2.222656 -23.796875 2.640625 -24.476562 3.171875 -25.09375 C 5.117188 -27.289062 8.207031 -28.390625 12.4375 -28.390625 C 14.96875 -28.390625 17.113281 -27.890625 18.875 -26.890625 C 20.207031 -26.140625 21.289062 -25.132812 22.125 -23.875 C 22.738281 -22.9375 23.171875 -21.851562 23.421875 -20.625 C 23.503906 -20.207031 23.5625 -19.789062 23.59375 -19.375 C 23.613281 -19.226562 23.625 -19.085938 23.625 -18.953125 L 23.625 -18.703125 L 17.90625 -18.703125 L 17.90625 -18.65625 C 17.9375 -19.5 17.726562 -20.210938 17.28125 -20.796875 C 16.394531 -22.046875 14.78125 -22.671875 12.4375 -22.671875 C 11.019531 -22.671875 9.851562 -22.488281 8.9375 -22.125 C 7.789062 -21.675781 7.21875 -21.035156 7.21875 -20.203125 C 7.21875 -18.484375 9.070312 -17.414062 12.78125 -17 C 16.945312 -16.519531 19.953125 -15.222656 21.796875 -13.109375 C 23.015625 -11.660156 23.625 -10.03125 23.625 -8.21875 L 23.625 -7.84375 C 23.625 -7.675781 23.613281 -7.507812 23.59375 -7.34375 C 23.5625 -6.90625 23.503906 -6.488281 23.421875 -6.09375 C 23.140625 -4.976562 22.609375 -3.988281 21.828125 -3.125 C 20.910156 -2.101562 19.675781 -1.3125 18.125 -0.75 C 16.5625 -0.21875 14.625 0.046875 12.3125 0.046875 Z M 12.3125 0.046875 "/></g></g></g><g fill="#000000" fill-opacity="1"><g transform="translate(49.650676, 43.520301)"><g/></g></g><g fill="#000000" fill-opacity="1"><g transform="translate(60.506822, 43.520301)"><g><path d="M 11.5625 -26.96875 C 15.289062 -26.96875 18.492188 -25.644531 21.171875 -23 C 23.816406 -20.351562 25.140625 -17.15625 25.140625 -13.40625 C 25.140625 -9.675781 23.816406 -6.472656 21.171875 -3.796875 C 18.492188 -1.148438 15.289062 0.171875 11.5625 0.171875 L 1.25 0.171875 L 1.25 -26.96875 Z M 16.734375 -8.21875 C 18.160156 -9.644531 18.875 -11.375 18.875 -13.40625 C 18.875 -15.40625 18.160156 -17.144531 16.734375 -18.625 C 15.316406 -20.039062 13.578125 -20.75 11.515625 -20.75 L 7.765625 -20.75 L 7.765625 -6.09375 L 11.5625 -6.09375 C 13.59375 -6.09375 15.316406 -6.800781 16.734375 -8.21875 Z M 16.734375 -8.21875 "/></g></g></g><g fill="#000000" fill-opacity="1"><g transform="translate(86.895614, 43.520301)"><g><path d="M 16.703125 -21.578125 L 22.546875 -21.578125 L 22.546875 0 L 16.703125 0 L 16.703125 -2.421875 C 15.503906 -0.859375 13.691406 -0.078125 11.265625 -0.078125 C 8.316406 -0.0546875 5.785156 -1.085938 3.671875 -3.171875 C 1.554688 -5.253906 0.484375 -7.785156 0.453125 -10.765625 C 0.429688 -13.722656 1.460938 -16.257812 3.546875 -18.375 C 5.640625 -20.488281 8.171875 -21.554688 11.140625 -21.578125 C 13.597656 -21.578125 15.453125 -20.785156 16.703125 -19.203125 Z M 14.953125 -7.09375 C 15.972656 -8.125 16.484375 -9.378906 16.484375 -10.859375 C 16.484375 -12.359375 15.957031 -13.609375 14.90625 -14.609375 C 13.84375 -15.671875 12.601562 -16.171875 11.1875 -16.109375 C 9.707031 -16.109375 8.457031 -15.597656 7.4375 -14.578125 C 6.40625 -13.546875 5.890625 -12.289062 5.890625 -10.8125 C 5.890625 -9.363281 6.414062 -8.113281 7.46875 -7.0625 C 8.5 -6.03125 9.753906 -5.515625 11.234375 -5.515625 C 12.734375 -5.566406 13.972656 -6.09375 14.953125 -7.09375 Z M 14.953125 -7.09375 "/></g></g></g><g fill="#000000" fill-opacity="1"><g transform="translate(109.944021, 43.520301)"><g><path d="M 9.9375 0 C 8.488281 0 7.222656 -0.222656 6.140625 -0.671875 C 5.273438 -0.972656 4.382812 -1.539062 3.46875 -2.375 C 1.875 -3.851562 1.148438 -5.71875 1.296875 -7.96875 L 1.296875 -8.4375 L 5.96875 -8.34375 L 6.34375 -8.34375 L 6.34375 -8.015625 C 6.375 -7.316406 6.53125 -6.742188 6.8125 -6.296875 C 7.28125 -5.492188 8.320312 -5.09375 9.9375 -5.09375 C 11.269531 -5.09375 12.226562 -5.242188 12.8125 -5.546875 C 13.125 -5.691406 13.332031 -5.875 13.4375 -6.09375 C 13.5 -6.175781 13.53125 -6.257812 13.53125 -6.34375 L 13.5625 -6.5625 C 13.5625 -7.144531 13.101562 -7.613281 12.1875 -7.96875 C 11.820312 -8.113281 11.40625 -8.226562 10.9375 -8.3125 C 10.570312 -8.394531 10.171875 -8.460938 9.734375 -8.515625 C 8.054688 -8.679688 6.660156 -9.015625 5.546875 -9.515625 C 4.429688 -9.960938 3.515625 -10.578125 2.796875 -11.359375 C 1.796875 -12.492188 1.296875 -13.800781 1.296875 -15.28125 C 1.296875 -16.195312 1.460938 -17.046875 1.796875 -17.828125 C 2.046875 -18.441406 2.378906 -18.984375 2.796875 -19.453125 C 4.296875 -21.179688 6.703125 -22.046875 10.015625 -22.046875 C 11.992188 -22.046875 13.664062 -21.65625 15.03125 -20.875 C 16.082031 -20.289062 16.929688 -19.5 17.578125 -18.5 C 18.078125 -17.75 18.425781 -16.867188 18.625 -15.859375 C 18.675781 -15.523438 18.71875 -15.207031 18.75 -14.90625 L 18.75 -14.03125 L 13.6875 -14.03125 L 13.6875 -14.65625 C 13.664062 -14.769531 13.65625 -14.878906 13.65625 -14.984375 C 13.570312 -15.296875 13.457031 -15.546875 13.3125 -15.734375 C 12.707031 -16.578125 11.609375 -17 10.015625 -17 C 7.679688 -17 6.515625 -16.507812 6.515625 -15.53125 C 6.515625 -15.03125 6.789062 -14.625 7.34375 -14.3125 C 7.925781 -13.957031 8.914062 -13.695312 10.3125 -13.53125 C 13.507812 -13.195312 15.832031 -12.179688 17.28125 -10.484375 C 18.257812 -9.335938 18.75 -8.03125 18.75 -6.5625 L 18.75 -6.265625 L 18.703125 -5.890625 C 18.703125 -5.523438 18.660156 -5.191406 18.578125 -4.890625 C 18.359375 -3.992188 17.941406 -3.195312 17.328125 -2.5 C 16.628906 -1.664062 15.65625 -1.039062 14.40625 -0.625 C 13.15625 -0.207031 11.664062 0 9.9375 0 Z M 9.9375 0 "/></g></g></g><g fill="#000000" fill-opacity="1"><g transform="translate(129.944388, 43.520301)"><g><path d="M 23.171875 0 L 17.75 0 L 17.75 -10.609375 L 17.703125 -10.609375 L 17.703125 -10.734375 C 17.703125 -12.179688 17.1875 -13.421875 16.15625 -14.453125 C 15.125 -15.472656 13.875 -15.984375 12.40625 -15.984375 C 10.957031 -15.984375 9.703125 -15.457031 8.640625 -14.40625 C 7.585938 -13.34375 7.085938 -12.085938 7.140625 -10.640625 L 7.140625 -10.609375 L 7.09375 -10.609375 L 7.09375 0 L 1.25 0 L 1.25 -27.140625 L 7.09375 -27.140625 L 7.09375 -18.78125 C 8.40625 -20.34375 10.160156 -21.222656 12.359375 -21.421875 C 15.421875 -21.671875 17.953125 -20.875 19.953125 -19.03125 C 22.097656 -17.0625 23.171875 -14.296875 23.171875 -10.734375 Z M 23.171875 0 "/></g></g></g></g></g></svg>